<svg xmlns="http://www.w3.org/2000/svg" viewBox="0 0 1024 1024" width="1024" height="1024">
  <defs>
    <linearGradient id="bg" x1="172" y1="80" x2="852" y2="944" gradientUnits="userSpaceOnUse">
      <stop offset="0" stop-color="#28332b"/>
      <stop offset="0.52" stop-color="#171b18"/>
      <stop offset="1" stop-color="#0c0f0d"/>
    </linearGradient>
    <radialGradient id="ember" cx="508" cy="586" r="246" gradientUnits="userSpaceOnUse">
      <stop offset="0" stop-color="#ffbe67"/>
      <stop offset="0.42" stop-color="#d75c32"/>
      <stop offset="0.74" stop-color="#6d251e"/>
      <stop offset="1" stop-color="#211311"/>
    </radialGradient>
    <filter id="softShadow" x="-20%" y="-20%" width="140%" height="140%">
      <feDropShadow dx="0" dy="28" stdDeviation="26" flood-color="#070806" flood-opacity="0.38"/>
    </filter>
  </defs>

  <rect width="1024" height="1024" fill="url(#bg)"/>
  <circle cx="512" cy="548" r="374" fill="#0d110f" opacity="0.34"/>

  <g filter="url(#softShadow)">
    <ellipse cx="512" cy="656" rx="296" ry="96" fill="#080a08" opacity="0.92"/>
    <ellipse cx="512" cy="612" rx="250" ry="150" fill="#141814" opacity="0.92"/>
  </g>

  <g opacity="0.16" stroke="#746b57" stroke-width="16" stroke-linecap="round">
    <path d="M304 468 Q512 420 720 468"/>
    <path d="M328 544 Q512 504 696 544"/>
    <path d="M392 392 L392 664"/>
    <path d="M632 392 L632 664"/>
  </g>

  <ellipse cx="512" cy="568" rx="228" ry="170" fill="url(#ember)" opacity="0.96"/>
  <ellipse cx="512" cy="596" rx="154" ry="92" fill="#f4a34d" opacity="0.34"/>

  <g fill="none" stroke-linecap="round" stroke-linejoin="round">
    <path d="M420 650 C400 586 446 530 488 486 C522 450 536 412 522 370 C588 426 626 484 614 552 C662 528 688 488 682 438 C740 526 710 642 618 688 C558 718 456 716 420 650 Z" fill="#e9c17a" opacity="0.96"/>
    <path d="M480 662 C456 604 500 558 528 522 C552 490 556 456 544 424 C596 482 628 580 558 666 C538 686 502 686 480 662 Z" fill="#d95f35"/>
    <path d="M504 664 C498 622 526 590 548 562 C566 538 570 514 564 486 C606 548 602 628 548 672 C532 684 512 682 504 664 Z" fill="#f6d084"/>
  </g>

  <g stroke="#111511" stroke-width="28" stroke-linecap="round" opacity="0.92">
    <path d="M338 684 L686 684"/>
    <path d="M370 726 L654 726"/>
  </g>

  <ellipse cx="512" cy="724" rx="210" ry="28" fill="#070807" opacity="0.88"/>
</svg>
