<svg xmlns="http://www.w3.org/2000/svg" viewBox="0 0 512 512" width="512" height="512">
  
  <rect x="0" y="0" width="512" height="512" rx="113" ry="113" fill="#FAF6F0"></rect>

  
  <g fill="none" stroke="#E8412A" stroke-width="20" stroke-linecap="round" stroke-linejoin="round">
    <path d="M 64 138 Q 256 96 448 138"></path>
    <path d="M 96 172 L 416 172"></path>
    <path d="M 124 232 L 388 232"></path>
    <path d="M 256 172 L 256 200"></path>
    <path d="M 148 172 L 138 432"></path>
    <path d="M 364 172 L 374 432"></path>
  </g>

  
  <g fill="#E8412A">
    <path d="M 196 376 q 0 -22 26 -24 l 86 0 q 22 0 28 14 l 6 14 q 4 12 -8 14 l -118 0 q -20 0 -20 -18 z"></path>
    <circle cx="334" cy="366" r="20"></circle>
    <path d="M 348 370 q 18 -2 22 8 q 2 8 -8 10 l -16 -2 z"></path>
    <circle cx="368" cy="374" r="2.5" fill="#1a1614"></circle>
    <path d="M 322 356 q -6 -10 2 -18 q 10 -6 16 6 q 4 14 -4 22 q -8 4 -14 -10 z"></path>
    <rect x="216" y="392" width="12" height="26" rx="4"></rect>
    <rect x="246" y="394" width="12" height="24" rx="4"></rect>
    <rect x="288" y="392" width="12" height="26" rx="4"></rect>
    <rect x="316" y="394" width="12" height="24" rx="4"></rect>
    <path d="M 198 370 q -16 -10 -14 -28 q 2 -10 10 -8 q 6 4 4 14 q -2 12 4 18 z"></path>
  </g>
</svg>